<svg version="1.1" id="Layer_1" xmlns="http://www.w3.org/2000/svg" xmlns:xlink="http://www.w3.org/1999/xlink" x="0px" y="0px"
	 viewBox="0 0 128 128" style="enable-background:new 0 0 128 128;" xml:space="preserve">
<style type="text/css">
	.st0 { fill: #3671B8; }
	@media (prefers-color-scheme: dark) {
		.st0 { fill: #FFF; }
	}
</style>
<g>
	<rect x="61.8" y="21.9" class="st0" width="10.3" height="11.1"/>
	<path class="st0" d="M114.7,52.3c-8-8.1-19.3-12.2-34-12.3l7.1-35.9H47.2c-12.2,0-24.1,9.9-26.5,22.1L1.2,123.8H54v0h25.4
		c10.1,0,18.7-1.8,25.8-5.5c7.1-3.6,12.5-8.7,16.2-15.3c3.7-6.6,5.5-13.6,5.5-21C126.8,70.5,122.8,60.6,114.7,52.3z M51.2,40v7.3v5
		h-5H39v66.5H7.3l18.3-91.6c2-10,11.7-18.1,21.6-18.1h34.5L75.6,40H51.2z M98.4,74.4v26.8H86.3V85.5H75.2v15.7H63V74.4h-2.9
		l20.6-17.7l7.3,6.3v-3.8h5.2v8.3l8,6.9H98.4z"/>
	<path class="st0" d="M35.9,25.3V33h0h10.3V21.9h-6.9C37.4,21.9,35.9,23.4,35.9,25.3z"/>
	<rect x="49.1" y="21.9" class="st0" width="10.3" height="11.1"/>
	<rect x="23.2" y="61.5" class="st0" width="11.1" height="10.3"/>
	<rect x="35.9" y="36.2" class="st0" width="10.3" height="11.1"/>
</g>
</svg>
