<svg
    version="1.1"
    id="Layer_1"
    xmlns="http://www.w3.org/2000/svg"
    xmlns:xlink="http://www.w3.org/1999/xlink"
    x="0px"
    y="0px"
    viewBox="0 0 401.47 234.76"
    style="enable-background:new 0 0 401.47 234.76;"
    xml:space="preserve"
    fill="#1B72D2"
>
    <g>
        <g>
            <rect x="85.57" y="24.8" width="14.32" height="15.53"></rect>
            <path
                d="M159.31,67.25c-11.18-11.35-26.99-17.08-47.42-17.2L121.87,0H65.17C48.13,0,31.5,13.84,28.11,30.85L0.94,167.07h73.65
					   v-0.04h35.42c14.05,0,26.04-2.54,35.95-7.63c9.91-5.08,17.44-12.21,22.58-21.39c5.14-9.17,7.7-18.92,7.7-29.25
					   C176.25,92.56,170.6,78.72,159.31,67.25z M70.73,50.04v10.18v7h-7H53.67v92.85H9.48l25.5-127.85C37.75,18.31,51.29,7,65.17,7
					   h48.17l-8.58,43.04H70.73z M136.66,98.11v37.41h-16.94V113.6h-15.53v21.92H87.25V98.11h-4.03l28.74-24.71l10.24,8.8v-5.27h7.29
					   v11.54l11.21,9.64H136.66z"
            ></path>
            <path
                d="M49.41,40.33h14.32V24.8h-9.57c-2.63,0-4.76,2.13-4.76,4.76V40.33z"
            ></path>
            <rect x="67.76" y="24.8" width="14.32" height="15.53"></rect>
            <rect x="31.65" y="80.05" width="15.53" height="14.32"></rect>
            <rect x="49.34" y="44.67" width="14.32" height="15.53"></rect>
        </g>
        <g>
            <g>
                <path d="M185.42,160.48V78.59h31.96v81.89H185.42z"></path>
                <path
                    d="M253.48,160.48h-32.01l25.09-81.89h45.6l25.1,81.89H285.3l-4.17-13.84h-23.49L253.48,160.48z M263.47,127.31h11.84
						   l-5.92-20.34L263.47,127.31z"
                ></path>
                <path
                    d="M397.67,139.92v20.55h-76.09l33.24-61.34h-30.54V78.59h75.05l-33.24,61.34H397.67z"
                ></path>
            </g>
        </g>
        <g>
            <path
                d="M27.21,193.52c0-8.89-6.18-11.81-14.21-11.81H0v39.83h6.84v-15.57h5.88l8.3,15.57h7.69l-9.23-16.6
					   C24.13,203.26,27.21,199.56,27.21,193.52z M6.84,187.35h5.45c5.29,0,8.17,1.58,8.17,6.16c0,4.53-2.88,6.8-8.17,6.8H6.84V187.35z"
            ></path>
            <path
                d="M45.2,190.89c-6.82,0-13.36,5.99-13.36,15.71c0,9.87,6.28,15.66,14.28,15.66c3.68,0,7.17-1.32,9.94-3.24l-2.31-4.36
					   c-2.12,1.36-4.25,2.17-6.73,2.17c-4.67,0-7.98-3.02-8.54-8.33h18.4c0.15-0.73,0.3-2.07,0.3-3.41
					   C57.16,196.73,53.03,190.89,45.2,190.89z M38.4,203.72c0.59-4.8,3.56-7.41,6.94-7.41c3.97,0,5.95,2.8,5.95,7.41H38.4z"
            ></path>
            <path
                d="M96.16,190.89c-3.68,0-6.55,2.31-9.32,5.36c-1.33-3.36-3.75-5.36-8-5.36c-3.63,0-6.44,2.17-8.9,4.81h-0.19l-0.52-4.08
					   h-5.57v29.91h6.8v-20.9c2.24-2.51,4.27-3.73,6.07-3.73c3.04,0,4.46,1.85,4.46,6.77v17.86h6.8v-20.9c2.24-2.51,4.22-3.73,6.07-3.73
					   c3.04,0,4.46,1.85,4.46,6.77v17.86h6.8v-18.76C105.11,195.22,102.27,190.89,96.16,190.89z"
            ></path>
            <path
                d="M125.27,190.89c-7.22,0-13.78,5.75-13.78,15.71c0,9.92,6.56,15.66,13.78,15.66c7.22,0,13.78-5.75,13.78-15.66
					   C139.05,196.63,132.49,190.89,125.27,190.89z M125.27,216.53c-4.25,0-6.8-3.95-6.8-9.94c0-5.99,2.55-9.99,6.8-9.99
					   c4.25,0,6.8,3.99,6.8,9.99C132.07,212.59,129.52,216.53,125.27,216.53z"
            ></path>
            <path
                d="M163.63,189.35l0.26,4.82c-2.24-2.02-4.32-3.29-7.6-3.29c-6.35,0-12.27,5.97-12.27,15.71c0,9.87,4.67,15.66,11.9,15.66
					   c3.12,0,6.09-1.75,8.24-3.97h0.19l0.52,3.24h5.57v-43.02h-6.8V189.35z M163.63,213.1c-1.91,2.34-3.8,3.36-6.04,3.36
					   c-4.18,0-6.59-3.43-6.59-9.94c0-6.24,3.04-9.84,6.73-9.84c1.96,0,3.92,0.66,5.9,2.49V213.1z"
            ></path>
            <path
                d="M190.51,190.89c-6.82,0-13.36,5.99-13.36,15.71c0,9.87,6.28,15.66,14.28,15.66c3.68,0,7.17-1.32,9.94-3.24l-2.31-4.36
					   c-2.12,1.36-4.25,2.17-6.73,2.17c-4.67,0-7.98-3.02-8.54-8.33h18.4c0.15-0.73,0.3-2.07,0.3-3.41
					   C202.48,196.73,198.35,190.89,190.51,190.89z M183.72,203.72c0.59-4.8,3.56-7.41,6.94-7.41c3.97,0,5.95,2.8,5.95,7.41H183.72z"
            ></path>
            <path
                d="M217.24,216.53c-0.71,0-1.46-0.61-1.46-2.34v-35.69h-6.8v35.32c0,5.21,1.77,8.43,6.58,8.43c1.63,0,2.76-0.27,3.59-0.61
					   l-0.85-5.24C217.78,216.53,217.55,216.53,217.24,216.53z"
            ></path>
            <ellipse cx="228.39" cy="182.41" rx="4.2" ry="3.97"></ellipse>
            <rect x="224.97" y="191.62" width="6.8" height="29.91"></rect>
            <path
                d="M256.22,190.89c-3.97,0-6.92,2.17-9.51,4.77h-0.19l-0.52-4.04h-5.57v29.91h6.8v-20.9c2.38-2.44,4.06-3.73,6.61-3.73
					   c3.14,0,4.51,1.85,4.51,6.77v17.86h6.8v-18.76C265.14,195.22,262.42,190.89,256.22,190.89z"
            ></path>
            <path
                d="M288.4,216.83h-5.16c-3.52,0-4.7-1.02-4.7-2.7c0-1.34,0.54-2.09,1.42-2.86c1.3,0.52,2.69,0.79,3.92,0.79
					   c6.14,0,11.02-3.56,11.02-10.21c0-2.05-0.71-3.9-1.65-5.02h5.29v-5.21h-10.36c-1.18-0.44-2.69-0.73-4.29-0.73
					   c-6.07,0-11.45,3.87-11.45,10.74c0,3.53,1.84,6.38,3.82,7.89v0.24c-1.68,1.22-3.21,3.26-3.21,5.58c0,2.41,1.13,4,2.62,4.99v0.24
					   c-2.67,1.66-4.18,3.86-4.18,6.38c0,5.24,5.15,7.79,12.06,7.79c9.46,0,15.46-4.65,15.46-10.55
					   C299,219.04,295.32,216.83,288.4,216.83z M283.88,195.73c2.83,0,5.03,2.14,5.03,5.89c0,3.8-2.24,6.02-5.03,6.02
					   c-2.79,0-5.03-2.22-5.03-6.02C278.85,197.85,281.04,195.73,283.88,195.73z M284.58,230.2c-4.56,0-7.39-1.58-7.39-4.31
					   c0-1.39,0.68-2.73,2.24-3.95c1.11,0.29,2.36,0.41,3.92,0.41h3.98c3.32,0,5.11,0.68,5.11,3
					   C292.44,227.93,289.26,230.2,284.58,230.2z"
            ></path>
            <polygon
                points="323.38,181.7 316.54,181.7 316.54,221.53 339.41,221.53 339.41,215.59 323.38,215.59 		"
            ></polygon>
            <polygon
                points="353,181.7 346.16,181.7 346.16,221.53 369.03,221.53 369.03,215.59 353,215.59 		"
            ></polygon>
            <path
                d="M397.81,212.03c-2.17,2.46-4.81,4.09-8.24,4.09c-6.47,0-10.62-5.5-10.62-14.59c0-8.94,4.51-14.42,10.79-14.42
					   c3.02,0,5.33,1.41,7.32,3.46l3.66-4.56c-2.43-2.66-6.28-5.04-11.12-5.04c-9.77,0-17.68,7.75-17.68,20.78
					   c0,13.18,7.69,20.51,17.39,20.51c5,0,9.03-2.05,12.16-5.8L397.81,212.03z"
            ></path>
        </g>
    </g>
</svg>
